<svg xmlns="http://www.w3.org/2000/svg" width="26.24" height="22.253" viewBox="0 0 26.24 22.253">
  <g id="Group_1251" data-name="Group 1251" transform="translate(-174.38 -597.998)">
    <path id="Icon_ionic-ios-arrow-down" data-name="Icon ionic-ios-arrow-down" d="M20,22.977l9.922-9.93a1.867,1.867,0,0,1,2.648,0,1.891,1.891,0,0,1,0,2.656L21.328,26.953a1.872,1.872,0,0,1-2.586.055l-11.32-11.3a1.875,1.875,0,0,1,2.648-2.656Z" transform="translate(167.505 585.502)" fill="#fff"/>
    <path id="Icon_ionic-ios-arrow-down-2" data-name="Icon ionic-ios-arrow-down" d="M18,20.679l8.93-8.937a1.681,1.681,0,0,1,2.384,0,1.7,1.7,0,0,1,0,2.391L19.2,24.258a1.685,1.685,0,0,1-2.327.049L6.68,14.14a1.688,1.688,0,0,1,2.384-2.391Z" transform="translate(169.418 595.502)" fill="#fff"/>
  </g>
</svg>
